<svg width="284" height="50" viewBox="0 0 284 50" fill="none" xmlns="http://www.w3.org/2000/svg">
<path d="M43.7458 6.25V10.4167C43.7458 14.2844 42.2094 17.9937 39.4745 20.7286C36.7395 23.4635 33.0302 25 29.1625 25H27.0791V27.0833H37.4958V41.6667C37.4958 42.7717 37.0568 43.8315 36.2754 44.6129C35.494 45.3943 34.4342 45.8333 33.3291 45.8333H16.6625C15.5574 45.8333 14.4976 45.3943 13.7162 44.6129C12.9348 43.8315 12.4958 42.7717 12.4958 41.6667V27.0833H22.9125V20.8333C22.9125 16.9656 24.4489 13.2563 27.1838 10.5214C29.9187 7.78645 33.6281 6.25 37.4958 6.25H43.7458ZM11.4541 4.16666C13.9541 4.16464 16.4179 4.76329 18.6382 5.91223C20.8585 7.06117 22.7702 8.72675 24.2125 10.7687C22.0124 13.6623 20.8237 17.1984 20.8291 20.8333V22.9167H19.7875C15.6435 22.9167 11.6692 21.2705 8.73893 18.3402C5.80868 15.41 4.16248 11.4357 4.16248 7.29166V4.16666H11.4541Z" fill="#312E2E"/>
<path d="M74.47 41.576C72.43 41.576 70.528 41.186 68.764 40.406C67 39.626 65.458 38.54 64.138 37.148C62.818 35.744 61.786 34.106 61.042 32.234C60.298 30.362 59.926 28.334 59.926 26.15C59.926 24.062 60.274 22.094 60.97 20.246C61.666 18.386 62.668 16.748 63.976 15.332C65.284 13.904 66.862 12.788 68.71 11.984C70.558 11.168 72.628 10.76 74.92 10.76C76.216 10.76 77.518 10.904 78.826 11.192C80.146 11.48 81.412 11.906 82.624 12.47C83.836 13.022 84.928 13.7 85.9 14.504L83.164 19.022C82.12 18.05 80.854 17.3 79.366 16.772C77.89 16.232 76.432 15.962 74.992 15.962C73.576 15.962 72.322 16.214 71.23 16.718C70.15 17.21 69.238 17.906 68.494 18.806C67.75 19.706 67.186 20.762 66.802 21.974C66.418 23.174 66.226 24.482 66.226 25.898C66.226 27.446 66.442 28.85 66.874 30.11C67.306 31.37 67.906 32.456 68.674 33.368C69.454 34.28 70.36 34.982 71.392 35.474C72.436 35.966 73.558 36.212 74.758 36.212C75.718 36.212 76.642 36.056 77.53 35.744C78.43 35.42 79.228 34.97 79.924 34.394C80.62 33.818 81.172 33.14 81.58 32.36C81.988 31.58 82.192 30.728 82.192 29.804V29.354H74.398V24.836H88.132V29.336C88.132 31.148 87.754 32.804 86.998 34.304C86.254 35.792 85.234 37.082 83.938 38.174C82.642 39.254 81.178 40.094 79.546 40.694C77.914 41.282 76.222 41.576 74.47 41.576ZM93.215 41V22.568H98.741V25.214C99.425 24.182 100.259 23.39 101.243 22.838C102.239 22.274 103.307 21.992 104.447 21.992C105.095 21.992 105.767 22.088 106.463 22.28C107.159 22.472 107.741 22.718 108.209 23.018L105.905 27.68C105.497 27.404 105.017 27.188 104.465 27.032C103.925 26.864 103.421 26.78 102.953 26.78C102.233 26.78 101.549 26.966 100.901 27.338C100.253 27.71 99.731 28.196 99.335 28.796C98.939 29.384 98.741 30.02 98.741 30.704V41H93.215ZM119.93 41.576C117.938 41.576 116.15 41.15 114.566 40.298C112.994 39.434 111.746 38.264 110.822 36.788C109.898 35.312 109.436 33.644 109.436 31.784C109.436 30.416 109.694 29.138 110.21 27.95C110.738 26.762 111.47 25.724 112.406 24.836C113.342 23.936 114.428 23.24 115.664 22.748C116.9 22.244 118.238 21.992 119.678 21.992C121.598 21.992 123.278 22.394 124.718 23.198C126.17 23.99 127.298 25.094 128.102 26.51C128.918 27.926 129.326 29.576 129.326 31.46C129.326 31.616 129.32 31.754 129.308 31.874C129.308 31.982 129.29 32.192 129.254 32.504H115.124C115.124 33.44 115.334 34.256 115.754 34.952C116.186 35.648 116.786 36.194 117.554 36.59C118.322 36.974 119.216 37.166 120.236 37.166C121.196 37.166 122.042 36.98 122.774 36.608C123.518 36.236 124.232 35.642 124.916 34.826L128.894 36.824C128.03 38.312 126.806 39.476 125.222 40.316C123.638 41.156 121.874 41.576 119.93 41.576ZM115.322 29.444H123.89C123.77 28.736 123.512 28.124 123.116 27.608C122.732 27.092 122.24 26.696 121.64 26.42C121.04 26.144 120.362 26.006 119.606 26.006C118.802 26.006 118.094 26.144 117.482 26.42C116.87 26.696 116.378 27.092 116.006 27.608C115.634 28.124 115.406 28.736 115.322 29.444ZM143.169 41.576C141.177 41.576 139.389 41.15 137.805 40.298C136.233 39.434 134.985 38.264 134.061 36.788C133.137 35.312 132.675 33.644 132.675 31.784C132.675 30.416 132.933 29.138 133.449 27.95C133.977 26.762 134.709 25.724 135.645 24.836C136.581 23.936 137.667 23.24 138.903 22.748C140.139 22.244 141.477 21.992 142.917 21.992C144.837 21.992 146.517 22.394 147.957 23.198C149.409 23.99 150.537 25.094 151.341 26.51C152.157 27.926 152.565 29.576 152.565 31.46C152.565 31.616 152.559 31.754 152.547 31.874C152.547 31.982 152.529 32.192 152.493 32.504H138.363C138.363 33.44 138.573 34.256 138.993 34.952C139.425 35.648 140.025 36.194 140.793 36.59C141.561 36.974 142.455 37.166 143.475 37.166C144.435 37.166 145.281 36.98 146.013 36.608C146.757 36.236 147.471 35.642 148.155 34.826L152.133 36.824C151.269 38.312 150.045 39.476 148.461 40.316C146.877 41.156 145.113 41.576 143.169 41.576ZM138.561 29.444H147.129C147.009 28.736 146.751 28.124 146.355 27.608C145.971 27.092 145.479 26.696 144.879 26.42C144.279 26.144 143.601 26.006 142.845 26.006C142.041 26.006 141.333 26.144 140.721 26.42C140.109 26.696 139.617 27.092 139.245 27.608C138.873 28.124 138.645 28.736 138.561 29.444ZM157.481 41V22.568H163.007V24.62C163.715 23.828 164.597 23.192 165.653 22.712C166.721 22.232 167.897 21.992 169.181 21.992C170.597 21.992 171.839 22.304 172.907 22.928C173.987 23.54 174.833 24.398 175.445 25.502C176.057 26.594 176.363 27.872 176.363 29.336V41H170.837V30.506C170.837 29.186 170.489 28.16 169.793 27.428C169.109 26.684 168.167 26.312 166.967 26.312C166.151 26.312 165.443 26.48 164.843 26.816C164.255 27.14 163.799 27.59 163.475 28.166C163.163 28.73 163.007 29.372 163.007 30.092V41H157.481ZM183.304 41V11.3H189.136L201.934 31.28V11.3H207.766V41H201.934L189.136 21.02V41H183.304ZM223.923 41.576C221.931 41.576 220.143 41.15 218.559 40.298C216.987 39.434 215.739 38.264 214.815 36.788C213.891 35.312 213.429 33.644 213.429 31.784C213.429 30.416 213.687 29.138 214.203 27.95C214.731 26.762 215.463 25.724 216.399 24.836C217.335 23.936 218.421 23.24 219.657 22.748C220.893 22.244 222.231 21.992 223.671 21.992C225.591 21.992 227.271 22.394 228.711 23.198C230.163 23.99 231.291 25.094 232.095 26.51C232.911 27.926 233.319 29.576 233.319 31.46C233.319 31.616 233.313 31.754 233.301 31.874C233.301 31.982 233.283 32.192 233.247 32.504H219.117C219.117 33.44 219.327 34.256 219.747 34.952C220.179 35.648 220.779 36.194 221.547 36.59C222.315 36.974 223.209 37.166 224.229 37.166C225.189 37.166 226.035 36.98 226.767 36.608C227.511 36.236 228.225 35.642 228.909 34.826L232.887 36.824C232.023 38.312 230.799 39.476 229.215 40.316C227.631 41.156 225.867 41.576 223.923 41.576ZM219.315 29.444H227.883C227.763 28.736 227.505 28.124 227.109 27.608C226.725 27.092 226.233 26.696 225.633 26.42C225.033 26.144 224.355 26.006 223.599 26.006C222.795 26.006 222.087 26.144 221.475 26.42C220.863 26.696 220.371 27.092 219.999 27.608C219.627 28.124 219.399 28.736 219.315 29.444ZM243.384 41.576C241.824 41.576 240.426 41.33 239.19 40.838C237.966 40.346 236.946 39.626 236.13 38.678L238.452 34.97C239.22 35.786 240.024 36.41 240.864 36.842C241.704 37.274 242.544 37.49 243.384 37.49C243.852 37.49 244.254 37.412 244.59 37.256C244.938 37.1 245.208 36.878 245.4 36.59C245.604 36.29 245.706 35.93 245.706 35.51C245.706 35.03 245.568 34.652 245.292 34.376C245.028 34.1 244.62 33.848 244.068 33.62C243.516 33.38 242.802 33.08 241.926 32.72C241.182 32.408 240.468 32.054 239.784 31.658C239.1 31.262 238.542 30.758 238.11 30.146C237.69 29.534 237.48 28.76 237.48 27.824C237.48 26.684 237.798 25.682 238.434 24.818C239.07 23.942 239.946 23.258 241.062 22.766C242.19 22.274 243.486 22.028 244.95 22.028C245.862 22.028 246.816 22.166 247.812 22.442C248.82 22.718 249.894 23.138 251.034 23.702L249.144 27.248C247.596 26.252 246.21 25.754 244.986 25.754C244.302 25.754 243.756 25.904 243.348 26.204C242.94 26.504 242.736 26.882 242.736 27.338C242.736 27.77 242.946 28.148 243.366 28.472C243.798 28.784 244.32 29.066 244.932 29.318C245.556 29.558 246.15 29.78 246.714 29.984C247.638 30.32 248.454 30.692 249.162 31.1C249.882 31.508 250.446 32.042 250.854 32.702C251.262 33.35 251.466 34.22 251.466 35.312C251.466 36.644 251.142 37.778 250.494 38.714C249.858 39.638 248.934 40.346 247.722 40.838C246.522 41.33 245.076 41.576 243.384 41.576ZM262.624 41.576C260.788 41.576 259.36 40.994 258.34 39.83C257.32 38.654 256.81 37.016 256.81 34.916V26.762H254.344V22.568H256.81V15.656H262.336V22.568H266.386V26.762H262.336V34.52C262.336 35.216 262.474 35.744 262.75 36.104C263.038 36.464 263.44 36.644 263.956 36.644C264.532 36.644 265.084 36.452 265.612 36.068L266.998 40.496C266.374 40.832 265.672 41.096 264.892 41.288C264.124 41.48 263.368 41.576 262.624 41.576Z" fill="#312E2E"/>
</svg>
