<svg width="20" height="20" viewBox="0 0 20 20" fill="none" xmlns="http://www.w3.org/2000/svg">
<path d="M15.4168 6.22516C14.8002 6.8335 14.6418 7.7085 14.9335 8.4585L12.5002 10.8918V9.16683C12.5002 8.7085 12.1252 8.3335 11.6668 8.3335H10.8085C10.8335 8.19183 10.8335 8.0585 10.8335 7.91683C10.8335 5.3835 8.7835 3.3335 6.25017 3.3335C5.30616 3.33261 4.38493 3.6234 3.6125 4.16608C2.84007 4.70876 2.25416 5.47683 1.93492 6.36522C1.61569 7.25361 1.57871 8.21894 1.82906 9.12914C2.0794 10.0394 2.60484 10.85 3.3335 11.4502V16.6668C3.3335 17.1252 3.7085 17.5002 4.16684 17.5002H11.6668C12.1252 17.5002 12.5002 17.1252 12.5002 16.6668V13.2418L16.1085 9.6335C16.8585 9.92516 17.7335 9.77516 18.3335 9.16683L15.4168 6.22516ZM3.37517 8.3335C3.3585 8.19183 3.3335 8.0585 3.3335 7.91683C3.3335 6.3085 4.64184 5.00016 6.25017 5.00016C7.8585 5.00016 9.16684 6.3085 9.16684 7.91683C9.16684 8.0585 9.14184 8.19183 9.12517 8.3335H3.37517Z" fill="#222222"/>
</svg>
